<svg xmlns="http://www.w3.org/2000/svg" viewBox="0 0 64 64" width="64" height="64">
  <defs>
    <linearGradient id="dbGrad" x1="0%" y1="0%" x2="100%" y2="100%">
      <stop offset="0%" stop-color="#2563eb" />
      <stop offset="100%" stop-color="#06b6d4" />
    </linearGradient>
  </defs>
  <path d="M12 18c0-3.3 8-6 18-6s18 2.7 18 6v8c0 3.3-8 6-18 6s-18-2.7-18-6v-8z" fill="url(#dbGrad)" opacity="0.85"/>
  <path d="M12 18c0 3.3 8 6 18 6s18-2.7 18-6" fill="none" stroke="#fff" stroke-width="2" stroke-linecap="round"/>
  <path d="M12 28c0 3.3 8 6 18 6s18-2.7 18-6v8c0 3.3-8 6-18 6s-18-2.7-18-6v-8z" fill="url(#dbGrad)" opacity="0.9"/>
  <path d="M12 28c0 3.3 8 6 18 6s18-2.7 18-6" fill="none" stroke="#fff" stroke-width="2" stroke-linecap="round"/>
  <path d="M12 38c0 3.3 8 6 18 6s18-2.7 18-6v8c0 3.3-8 6-18 6s-18-2.7-18-6v-8z" fill="url(#dbGrad)"/>
  <path d="M12 38c0 3.3 8 6 18 6s18-2.7 18-6" fill="none" stroke="#fff" stroke-width="2" stroke-linecap="round"/>
  <circle cx="20" cy="18" r="2" fill="#fff"/>
  <circle cx="20" cy="28" r="2" fill="#fff"/>
  <circle cx="20" cy="38" r="2" fill="#fff"/>
</svg>
