<svg xmlns="http://www.w3.org/2000/svg" viewBox="0 0 64 64" width="64" height="64">
  <defs>
    <linearGradient id="langGrad" x1="0%" y1="0%" x2="100%" y2="100%">
      <stop offset="0%" stop-color="#f59e0b" />
      <stop offset="100%" stop-color="#eab308" />
    </linearGradient>
  </defs>
  <path d="M12 20h28c3.3 0 6 2.7 6 6v14c0 3.3-2.7 6-6 6H24l-10 8v-8H12c-3.3 0-6-2.7-6-6V26c0-3.3 2.7-6 6-6z" fill="url(#langGrad)"/>
  <path d="M52 12H28c-3.3 0-6 2.7-6 6v2h18c4.4 0 8 3.6 8 8v14h4l10 8v-8h2c3.3 0 6-2.7 6-6V18c0-3.3-2.7-6-6-6z" fill="url(#langGrad)" opacity="0.75"/>
  <text x="18" y="38" font-family="'Segoe UI',sans-serif" font-size="16" font-weight="bold" fill="#fff">A</text>
  <text x="30" y="38" font-family="'Segoe UI',sans-serif" font-size="14" font-weight="bold" fill="#fff">あ</text>
</svg>
